<svg version="1.1" id="Layer_1" xmlns="http://www.w3.org/2000/svg" xmlns:xlink="http://www.w3.org/1999/xlink" x="0px" y="0px"
	 width="100%" viewBox="0 0 1024 640" enable-background="new 0 0 1024 640" xml:space="preserve">
<path fill="#000000" opacity="1.000000" stroke="none" 
	d="
M462.849426,107.975571 
	C479.149323,116.075203 492.462280,127.675514 506.126678,139.741852 
	C510.315399,134.250977 514.178101,129.103760 518.129456,124.025543 
	C525.940063,113.987473 534.693359,104.895912 545.013489,97.377693 
	C548.141113,95.099205 551.529480,93.331047 555.125671,91.987793 
	C566.924622,87.580650 576.344910,92.014610 580.272217,104.070900 
	C583.090820,112.723709 583.867676,121.692772 582.771545,130.728073 
	C582.266663,134.890030 582.493408,138.114105 585.968994,141.447372 
	C593.091125,148.277710 590.823608,158.915405 581.883606,163.448761 
	C580.846863,163.974457 579.757019,164.438812 578.824402,165.114563 
	C577.843506,165.825241 577.279541,166.896072 577.521240,168.166779 
	C577.808777,169.678436 579.093445,169.680237 580.250122,169.795456 
	C586.707336,170.438538 593.181763,170.940140 599.620117,171.734650 
	C612.751038,173.355057 625.594849,176.167160 637.302612,182.629379 
	C654.090210,191.895508 655.350769,205.271667 640.999084,218.215561 
	C628.457214,229.527130 613.473145,236.121613 597.692627,241.295166 
	C593.312988,242.731018 588.721252,243.668365 584.474182,246.553864 
	C587.211853,253.081085 589.932922,259.471649 592.577148,265.893768 
	C597.870361,278.749298 601.556946,292.000488 602.313171,305.963287 
	C602.504456,309.495117 601.962341,312.946472 601.185303,316.361145 
	C598.833374,326.696777 590.804199,331.800934 580.302551,330.010010 
	C570.011353,328.255035 561.235718,323.199463 552.680298,317.692810 
	C548.367920,314.917175 544.375610,313.064606 538.794739,314.205505 
	C531.563416,315.683868 524.426697,308.648041 523.940796,300.738922 
	C523.802612,298.490173 524.612610,296.005524 522.170837,294.039520 
	C519.692932,294.894318 518.753784,297.344330 517.359009,299.252350 
	C507.300354,313.012482 496.732697,326.277283 482.653442,336.272186 
	C478.527863,339.200928 474.089813,341.359192 469.167633,342.579193 
	C461.053955,344.590179 454.575592,342.006256 450.614868,334.646393 
	C444.605438,323.479523 444.357941,311.346466 445.215515,299.103058 
	C445.937683,288.792206 447.806091,278.650055 450.264374,268.632721 
	C451.265991,264.551300 449.983948,263.451721 445.940430,263.204681 
	C429.788300,262.217865 413.807343,260.096863 398.489105,254.461884 
	C392.782043,252.362488 387.611511,249.388123 383.277527,245.118347 
	C376.754211,238.691620 375.918732,231.759842 380.384766,223.798050 
	C383.582062,218.098099 388.396790,214.039078 393.681061,210.489227 
	C397.272461,208.076599 400.935120,205.698807 404.804993,203.790283 
	C409.498779,201.475418 412.576355,198.574921 414.145325,193.114197 
	C416.393402,185.289917 426.427490,182.462234 434.109985,186.986221 
	C437.446411,188.950928 440.223877,189.022522 443.670197,186.583267 
	C440.900360,180.072296 437.945679,173.603836 435.375092,166.986191 
	C429.808990,152.657059 424.874847,138.146027 425.727692,122.425835 
	C426.550323,107.261955 435.905182,100.224892 450.709167,103.780678 
	C454.731812,104.746887 458.577026,106.451637 462.849426,107.975571 
M446.788574,108.546425 
	C436.916077,107.458931 434.683899,109.154701 432.731262,118.741180 
	C431.724457,123.684174 432.967072,128.359100 434.110413,133.009338 
	C438.111877,149.283981 445.142792,164.376938 452.409668,179.381927 
	C453.983429,182.631531 456.112823,183.112473 459.291229,182.321182 
	C466.073395,180.632690 472.901825,179.128235 479.721069,177.591614 
	C482.413879,176.984848 484.619080,175.962524 486.058075,173.302155 
	C490.020142,165.977432 494.116364,158.721191 498.342926,151.545883 
	C499.797943,149.075699 499.551331,147.430832 497.438477,145.506760 
	C491.649750,140.235413 486.167389,134.623260 480.307800,129.435135 
	C470.538422,120.785240 460.116425,113.079697 446.788574,108.546425 
M596.435791,230.838181 
	C607.175903,227.273544 617.910095,223.652710 627.673340,217.798050 
	C633.069641,214.562119 638.703552,211.549911 642.463257,206.173187 
	C646.224365,200.794312 645.455078,195.720856 640.078247,191.954025 
	C636.654968,189.555817 632.871826,187.824478 628.867615,186.591751 
	C612.162903,181.449188 594.936096,180.372025 577.618042,179.952408 
	C574.932495,179.887344 573.250977,180.860931 572.408447,183.524826 
	C569.902039,191.448807 567.288757,199.339142 564.688110,207.233032 
	C563.908875,209.598312 564.141785,211.785660 565.432007,213.924835 
	C569.211914,220.191910 573.011230,226.448761 576.677185,232.782364 
	C578.169983,235.361420 579.913513,236.183029 582.838806,235.124451 
	C587.054688,233.598846 591.397400,232.423889 596.435791,230.838181 
M464.649445,336.632202 
	C469.512177,336.308075 473.551788,334.030609 477.209961,331.073151 
	C492.055420,319.071350 502.403137,303.362091 512.820435,287.709503 
	C514.394104,285.345062 513.323853,283.646912 511.807770,281.952332 
	C506.930145,276.500610 501.978027,271.114166 497.175812,265.597046 
	C495.021576,263.122162 492.514771,262.161774 489.266144,262.338501 
	C481.467804,262.762665 473.661041,263.085022 465.853455,263.258423 
	C463.023407,263.321259 461.644989,264.477905 461.051910,267.189667 
	C459.633270,273.675781 457.747833,280.072662 456.597809,286.601898 
	C454.382416,299.180145 451.940613,311.793427 454.285736,324.661560 
	C455.322662,330.351379 457.410919,335.247864 464.649445,336.632202 
M403.708893,212.230896 
	C397.350250,215.558090 391.015991,219.035995 386.531464,224.793472 
	C381.524567,231.221573 382.488770,236.355301 389.060516,240.856018 
	C392.804504,243.420090 396.946320,245.141541 401.299408,246.342102 
	C417.466064,250.800812 434.004974,251.985046 450.687836,251.958771 
	C453.170471,251.954865 454.758911,251.155014 455.534546,248.664871 
	C457.955872,240.891205 460.383881,233.116730 463.012421,225.411865 
	C464.090973,222.250168 463.469452,219.661377 461.798492,216.931931 
	C458.326019,211.259781 454.766968,205.608902 451.794464,199.673355 
	C449.729706,195.550369 447.278107,195.199875 443.432404,196.791290 
	C441.058319,197.773712 440.428375,199.517975 439.677277,201.610046 
	C436.606201,210.163986 428.034760,213.643951 420.377808,209.090988 
	C416.884857,207.014023 413.997620,206.938843 410.654266,208.851395 
	C408.639252,210.004074 406.466370,210.880783 403.708893,212.230896 
M587.555237,278.857666 
	C583.965942,269.888458 579.962952,261.117371 575.393860,252.595139 
	C573.877014,249.765961 572.046631,248.913788 568.924744,249.708420 
	C561.997681,251.471619 555.020386,253.051514 548.026672,254.531860 
	C545.039368,255.164169 542.963013,256.566345 541.478699,259.297485 
	C537.744263,266.169159 533.812683,272.933929 529.943054,279.731812 
	C528.930786,281.510071 527.929077,283.154602 529.756714,285.129791 
	C531.375732,286.879578 532.905701,287.491760 535.432190,286.935669 
	C545.674744,284.681183 553.140442,291.560455 551.883545,301.962402 
	C551.646790,303.921875 551.537476,305.608734 553.253418,306.890442 
	C560.984131,312.664673 568.522400,318.752869 577.727783,322.160828 
	C589.289246,326.441010 597.372375,319.770660 595.443909,307.420746 
	C593.951965,297.866241 591.569885,288.530334 587.555237,278.857666 
M562.690674,144.722961 
	C564.205261,141.621643 566.499939,139.269180 569.626038,137.824005 
	C571.239746,137.077972 572.448425,136.156677 572.740173,134.279984 
	C574.179504,125.020897 574.754578,115.665161 573.141174,106.457291 
	C571.129333,94.975395 563.653381,92.153961 553.865662,98.605804 
	C553.033081,99.154610 552.222107,99.740662 551.434875,100.352882 
	C535.929993,112.410408 524.984680,128.280563 514.466003,144.516205 
	C513.072693,146.666794 513.892883,148.152496 515.374023,149.788864 
	C520.062561,154.968903 524.784729,160.127289 529.252808,165.494751 
	C531.959595,168.746353 535.110596,170.180832 539.282959,169.695831 
	C546.394348,168.869202 553.532166,168.581741 560.694458,168.750168 
	C562.578918,168.794479 564.806152,169.400757 565.810181,166.824707 
	C566.819458,164.235123 567.459839,161.717194 565.244263,159.384995 
	C561.406311,155.344925 560.858337,150.621964 562.690674,144.722961 
M501.012177,250.187408 
	C511.648682,249.552521 522.089783,247.386154 532.650818,246.179443 
	C535.710632,245.829834 537.393555,244.356247 538.552734,241.660492 
	C541.970825,233.711227 545.292114,225.707001 549.096741,217.942581 
	C551.138428,213.775864 550.729614,210.450958 548.038086,206.899323 
	C542.911682,200.134552 537.843384,193.319580 532.968811,186.372589 
	C530.585144,182.975479 527.640015,181.580582 523.600159,182.115967 
	C514.375977,183.338409 505.143585,184.499603 495.918396,185.715073 
	C493.483521,186.035889 491.649597,187.051178 490.584747,189.551407 
	C486.868866,198.276169 482.984558,206.929276 479.153870,215.605026 
	C478.248352,217.655838 477.616455,219.710281 479.111847,221.748886 
	C486.085968,231.256256 492.532227,241.158936 501.012177,250.187408 
M560.346558,187.019440 
	C560.787537,184.953445 562.179382,183.081406 561.540649,180.278702 
	C555.627075,180.289017 549.643799,179.861969 542.579834,180.952194 
	C547.201782,187.239517 551.229980,192.719162 555.605957,198.671921 
	C558.199036,194.730072 558.828857,191.106262 560.346558,187.019440 
M475.742035,237.825958 
	C474.519501,236.633759 474.291962,234.431915 471.706146,234.077515 
	C469.714233,239.940781 467.730896,245.778732 465.729736,251.669128 
	C472.438812,251.669128 478.457062,251.669128 485.505981,251.669128 
	C481.984741,246.683411 479.058746,242.540543 475.742035,237.825958 
M517.218628,171.610626 
	C518.778870,171.328064 519.228271,170.509705 518.275879,169.184784 
	C515.203918,164.911026 511.821716,160.930573 507.189758,157.078964 
	C504.036499,162.729813 501.225708,167.766861 497.827118,173.857315 
	C505.052063,173.023895 510.780060,172.363144 517.218628,171.610626 
M528.213257,258.546417 
	C521.907288,259.425446 515.493164,259.659302 508.808380,261.366272 
	C512.184753,266.573517 515.930115,270.618713 520.547363,274.969757 
	C523.365112,269.222198 527.335510,264.781464 528.213257,258.546417 
M467.954224,205.948135 
	C468.523895,206.609161 469.367981,207.321075 469.953033,206.360962 
	C473.105865,201.186600 475.161560,195.566040 477.584259,189.090668 
	C471.122162,190.262146 465.961578,191.109497 460.242767,193.334671 
	C462.825348,197.620941 465.189636,201.544907 467.954224,205.948135 
M556.547241,241.718491 
	C559.973938,240.696411 563.709412,240.709213 567.358032,238.644531 
	C564.796814,233.719391 562.260925,229.102448 558.440491,224.068344 
	C555.570618,230.681946 553.128845,236.308853 550.705872,241.892517 
	C553.003235,243.054626 554.361450,242.088425 556.547241,241.718491 
z"/>
<path fill="#000000" opacity="1.000000" stroke="none" 
	d="
M728.515015,432.504181 
	C729.638306,434.349548 730.594360,435.878845 731.361877,437.106506 
	C733.093628,437.476685 733.697510,436.613251 734.256836,435.797211 
	C741.605042,425.076141 748.946777,414.340057 755.313232,403.000549 
	C759.217468,396.046478 758.030029,393.940094 750.034607,393.383759 
	C746.328308,393.125885 745.749695,391.172455 745.698303,388.131500 
	C745.643005,384.858398 747.133118,383.546509 750.251526,383.796143 
	C759.056274,384.500854 767.874695,384.871033 776.704773,384.613281 
	C781.526123,384.472595 786.340820,384.095581 791.157898,383.815430 
	C794.380615,383.628021 796.197021,384.834198 796.212097,388.360565 
	C796.225952,391.606628 795.106567,393.623291 791.586670,393.257233 
	C781.006836,392.156982 774.168152,397.578186 768.168030,405.574127 
	C758.766846,418.102325 749.498657,430.716492 740.464172,443.509644 
	C738.504578,446.284607 738.245850,448.475128 740.137634,451.585327 
	C751.913330,470.944733 763.796448,490.231689 775.940186,509.365234 
	C780.121033,515.952698 785.014587,519.800720 793.019409,518.807373 
	C797.211853,518.287170 798.651428,520.278198 798.383972,524.346436 
	C798.181458,527.427551 796.788574,528.316711 793.925842,528.228699 
	C775.765259,527.670227 757.601074,527.811157 739.440979,528.248474 
	C735.968445,528.332092 734.053162,527.284729 734.016418,523.541870 
	C733.979187,519.754333 735.974670,518.835144 739.393982,518.760559 
	C744.435181,518.650696 745.483704,517.215454 743.470154,513.065308 
	C736.351868,498.393646 728.105591,484.337982 719.845337,469.956635 
	C717.416504,471.418213 716.621826,473.712463 715.394104,475.542755 
	C707.972534,486.607391 700.314270,497.533356 693.986572,509.285278 
	C690.434326,515.882629 691.928955,518.568970 699.244141,518.743591 
	C702.742188,518.827148 704.436523,519.893188 704.392029,523.678040 
	C704.345703,527.615479 702.378296,528.273865 698.977295,528.238953 
	C685.481995,528.100098 671.984070,528.127136 658.487915,528.218384 
	C655.109009,528.241211 652.663147,527.954163 652.609924,523.564575 
	C652.556458,519.164734 655.012024,518.810669 658.379028,518.794617 
	C664.682129,518.764648 669.966125,516.073303 674.578064,511.964600 
	C681.971558,505.377777 687.818054,497.453583 693.653259,489.543488 
	C699.784851,481.231506 705.677063,472.742249 711.849487,464.461365 
	C713.851624,461.775391 713.844360,459.583405 712.119751,456.775238 
	C700.961426,438.606171 689.787659,420.443390 678.932251,402.093231 
	C675.176575,395.744537 670.040771,392.933380 662.905701,393.272614 
	C659.390930,393.439728 656.585999,393.082031 656.774353,388.364105 
	C656.948120,384.009033 659.531006,383.624969 662.870850,383.918701 
	C677.169434,385.176270 691.497192,384.593933 705.814331,384.523010 
	C709.798462,384.503296 713.780029,384.066650 717.763794,383.838470 
	C720.809937,383.664001 722.407166,384.894501 722.429993,388.172424 
	C722.451843,391.304230 721.693237,393.138611 718.047729,393.354095 
	C709.733521,393.845673 708.759399,395.409393 712.503052,402.695953 
	C717.601990,412.620544 723.049683,422.365906 728.515015,432.504181 
z"/>
<path fill="#000000" opacity="1.000000" stroke="none" 
	d="
M275.992676,477.876038 
	C272.734772,487.371765 269.259949,496.384735 267.249451,505.863708 
	C265.272003,515.186951 267.883698,518.571594 277.273529,518.843445 
	C279.778168,518.915955 282.848999,518.111694 283.319427,522.207336 
	C283.859711,526.911377 282.777405,528.214111 278.022644,528.208618 
	C263.864929,528.192383 249.706635,528.136841 235.549927,528.257141 
	C232.288986,528.284851 229.995071,527.865601 229.847153,523.910950 
	C229.695221,519.848877 231.793274,518.617188 235.417679,518.811157 
	C243.387299,519.237610 248.202499,514.625610 251.365372,508.131012 
	C259.682495,491.052673 266.521088,473.334778 273.362366,455.633148 
	C279.903931,438.707062 286.205353,421.687805 292.544617,404.684235 
	C293.919159,400.997375 295.734497,397.363800 293.345856,393.233765 
	C292.049652,390.992584 293.931946,390.112335 295.874786,389.458496 
	C303.750305,386.808258 311.734283,384.486420 318.280457,378.854736 
	C321.168213,376.370422 322.352509,379.273468 323.096649,381.513794 
	C327.817474,395.726166 332.340607,410.005127 337.157013,424.184631 
	C346.469727,451.601196 354.568573,479.431854 365.174042,506.408020 
	C368.213226,514.138489 372.747498,519.745056 382.138092,518.848389 
	C385.597656,518.518066 386.965393,520.495789 386.875275,523.713806 
	C386.783508,526.987793 385.204071,528.397339 381.793945,528.272949 
	C363.309265,527.598938 344.819092,527.849548 326.331848,528.235596 
	C323.047943,528.304138 320.258942,528.123230 320.231323,523.743591 
	C320.205872,519.717407 322.334808,518.806213 325.944153,518.777222 
	C333.240112,518.718628 334.443359,516.943237 332.354370,509.883820 
	C329.143280,499.032593 325.749268,488.234650 322.634399,477.356415 
	C321.694214,474.072968 320.025146,472.854340 316.600861,472.907318 
	C305.275421,473.082611 293.944702,473.064667 282.618164,472.934662 
	C279.146851,472.894806 276.759369,473.802185 275.992676,477.876038 
M281.627258,462.337738 
	C282.916321,464.283203 284.929626,463.555542 286.650055,463.574310 
	C293.965546,463.653992 301.283447,463.675568 308.598389,463.572388 
	C311.673553,463.529022 314.849213,464.217102 318.538574,462.635834 
	C313.350128,444.245117 308.197144,425.980042 303.044159,407.714966 
	C302.325134,407.752319 301.606079,407.789673 300.887054,407.827026 
	C294.438354,425.754517 287.989655,443.682037 281.627258,462.337738 
z"/>
<path fill="#000000" opacity="1.000000" stroke="none" 
	d="
M455.666595,483.002625 
	C455.366272,476.367737 456.374237,470.175568 454.853333,464.092438 
	C453.101685,457.086182 447.435120,452.819733 440.653015,453.415649 
	C433.252655,454.065887 428.712891,458.422058 428.231598,465.934540 
	C427.219421,481.732880 427.206848,497.559845 427.328186,513.384521 
	C427.353577,516.693298 428.332489,519.185120 432.199799,519.736328 
	C435.357056,520.186340 435.326324,522.787231 435.073120,525.178101 
	C434.798828,527.768311 432.919189,528.151672 430.704254,528.147888 
	C418.378418,528.126831 406.052185,528.125671 393.726776,528.212341 
	C390.939606,528.231934 389.193970,527.344727 389.074615,524.351135 
	C388.955627,521.368225 390.119934,519.532532 393.394226,519.617615 
	C398.342041,519.746399 399.941711,517.276001 399.852051,512.447998 
	C399.610870,499.457947 399.625458,486.457855 399.845947,473.466980 
	C399.947998,467.456665 397.891235,463.150024 392.327972,460.645508 
	C390.454254,459.802002 388.806091,458.689331 388.787964,456.280975 
	C388.767761,453.594696 390.724884,452.588501 392.727997,451.682098 
	C400.464722,448.181274 408.203583,444.684296 415.970490,441.251129 
	C422.207062,438.494354 423.690125,439.243622 425.541168,445.780212 
	C425.937286,447.179077 426.489655,448.533722 426.896149,449.697235 
	C428.199188,450.073639 428.820923,449.484406 429.416077,448.918121 
	C438.354401,440.414032 449.212769,438.509583 460.953918,439.849579 
	C474.003143,441.338837 483.202423,451.352631 483.259277,464.412842 
	C483.325958,479.737640 483.147186,495.064270 482.977264,510.389038 
	C482.887634,518.471130 483.077606,518.921753 490.864838,519.574707 
	C494.084991,519.844727 495.286896,521.400085 495.162079,524.399658 
	C495.034302,527.469299 493.182434,528.178772 490.450134,528.166992 
	C477.291748,528.110168 464.132782,528.120728 450.974457,528.193848 
	C448.108765,528.209778 446.027100,527.596741 445.848938,524.247437 
	C445.703339,521.510559 446.537842,519.743103 449.649872,519.613220 
	C453.567932,519.449707 454.260010,516.655823 454.718140,513.427063 
	C456.129883,503.477600 455.511688,493.480865 455.666595,483.002625 
z"/>
<path fill="#000000" opacity="1.000000" stroke="none" 
	d="
M639.802612,522.916565 
	C625.717407,532.182861 610.845703,532.476379 595.970093,527.198914 
	C584.125000,522.996582 577.485474,512.917603 574.118530,501.475769 
	C569.842957,486.945923 571.282471,472.723694 579.103821,459.130371 
	C590.364685,439.559143 615.887695,435.843201 631.680176,442.365356 
	C645.495972,448.071228 650.201965,461.034363 651.260193,473.104126 
	C651.489197,475.715973 650.094788,477.208160 647.573059,477.529724 
	C645.600586,477.781219 643.599854,477.916107 641.611328,477.919708 
	C629.127502,477.942383 616.642700,477.989197 604.160034,477.855408 
	C600.519958,477.816406 599.130981,479.141235 599.210144,482.837677 
	C599.366272,490.126862 600.288086,497.160980 604.859009,503.131439 
	C614.761841,516.066345 634.115417,516.693481 645.012146,504.353546 
	C647.051758,502.043793 648.639404,500.705658 651.621216,502.685638 
	C654.895813,504.860016 653.428772,507.255005 652.172668,509.601685 
	C649.284851,514.996704 645.027832,519.168945 639.802612,522.916565 
M616.265198,468.934448 
	C623.836060,468.556854 624.872620,467.222504 623.284363,459.721893 
	C622.941284,458.101746 622.492676,456.485779 621.905396,454.938995 
	C620.205322,450.461426 617.018372,448.499420 612.157043,449.118408 
	C606.088257,449.891144 600.855408,456.594818 600.171570,464.419342 
	C599.886169,467.685303 601.099731,469.035126 604.342529,468.943359 
	C607.998657,468.839874 611.660217,468.931946 616.265198,468.934448 
z"/>
<path fill="#000000" opacity="1.000000" stroke="none" 
	d="
M512.764954,499.992798 
	C512.882080,486.346008 512.835205,473.193451 513.207397,460.052765 
	C513.318115,456.143463 511.983978,454.901611 508.392334,455.321655 
	C507.736023,455.398407 507.058258,455.371063 506.397156,455.313721 
	C503.870178,455.094543 500.590424,456.181213 499.599396,452.717743 
	C498.585358,449.173828 501.575470,447.848694 504.024139,446.413574 
	C515.198730,439.864349 524.259888,430.790497 533.420410,421.831268 
	C535.242432,420.049225 536.780396,417.004852 539.947937,418.671875 
	C542.788025,420.166534 542.296326,423.273010 541.908142,425.868317 
	C541.312683,429.849121 541.478149,433.834900 541.305481,437.819458 
	C541.173706,440.860931 542.505371,441.998016 545.440063,441.955200 
	C550.931152,441.875031 556.428223,441.840942 561.915222,442.019653 
	C564.343933,442.098755 567.748657,441.142914 567.981079,445.272614 
	C568.288452,450.734253 565.407104,455.184052 561.533936,455.276306 
	C556.044434,455.407104 550.546875,455.435791 545.058472,455.291077 
	C541.668396,455.201721 540.274841,456.476868 540.302795,459.950012 
	C540.414062,473.763458 540.316406,487.578583 540.401855,501.392395 
	C540.414001,503.358673 540.909729,505.343567 541.349426,507.281799 
	C543.322754,515.981018 549.330261,519.343933 557.734192,516.417358 
	C560.246704,515.542358 562.614380,513.927124 564.387878,517.635803 
	C566.183533,521.390930 563.645996,522.941772 561.169067,524.274719 
	C550.867188,529.818909 539.869934,532.057800 528.402832,529.310913 
	C518.156982,526.856506 512.785583,519.398193 512.736084,508.979950 
	C512.722656,506.150604 512.751709,503.321014 512.764954,499.992798 
z"/>
<path fill="#000000" opacity="1.000000" stroke="none" 
	d="
M529.181152,233.243378 
	C520.066406,239.602951 509.111420,240.111359 501.359344,234.744629 
	C493.732758,229.464798 489.913116,219.949738 492.133789,211.113907 
	C494.524017,201.603561 500.807983,196.010178 510.307129,194.016998 
	C518.422791,192.314133 528.300659,196.425140 532.826050,203.784912 
	C537.742798,211.781113 537.957275,220.136276 533.207703,228.370148 
	C532.226013,230.072067 530.730469,231.477615 529.181152,233.243378 
z"/>
</svg>